<svg width="16" height="16" viewBox="0 0 16 16" fill="none" xmlns="http://www.w3.org/2000/svg">
<g clip-path="url(#clip0_2907_2568)">
<path d="M15.3335 7.33255C15.1567 7.33255 14.9872 7.26232 14.8621 7.13729C14.7371 7.01227 14.6669 6.8427 14.6669 6.66589C14.6655 5.25183 14.1031 3.8961 13.1032 2.89621C12.1033 1.89632 10.7476 1.33397 9.33353 1.33255C9.15672 1.33255 8.98715 1.26232 8.86213 1.13729C8.7371 1.01227 8.66686 0.842698 8.66686 0.665887C8.66686 0.489076 8.7371 0.319506 8.86213 0.194482C8.98715 0.0694579 9.15672 -0.000780015 9.33353 -0.000780015C11.101 0.00116105 12.7956 0.704163 14.0454 1.95399C15.2953 3.20381 15.9983 4.89837 16.0002 6.66589C16.0002 6.8427 15.93 7.01227 15.8049 7.13729C15.6799 7.26232 15.5103 7.33255 15.3335 7.33255ZM13.3335 6.66589C13.3335 5.60502 12.9121 4.5876 12.162 3.83746C11.4118 3.08731 10.3944 2.66589 9.33353 2.66589C9.15672 2.66589 8.98715 2.73612 8.86213 2.86115C8.7371 2.98617 8.66686 3.15574 8.66686 3.33255C8.66686 3.50936 8.7371 3.67893 8.86213 3.80396C8.98715 3.92898 9.15672 3.99922 9.33353 3.99922C10.0408 3.99922 10.7191 4.28017 11.2191 4.78027C11.7192 5.28037 12.0002 5.95864 12.0002 6.66589C12.0002 6.8427 12.0704 7.01227 12.1955 7.13729C12.3205 7.26232 12.4901 7.33255 12.6669 7.33255C12.8437 7.33255 13.0132 7.26232 13.1383 7.13729C13.2633 7.01227 13.3335 6.8427 13.3335 6.66589ZM14.7889 14.7752L15.3955 14.0759C15.7817 13.6885 15.9985 13.1638 15.9985 12.6169C15.9985 12.0699 15.7817 11.5453 15.3955 11.1579C15.3749 11.1372 13.7709 9.90322 13.7709 9.90322C13.3859 9.53677 12.8746 9.33273 12.3431 9.33347C11.8116 9.33422 11.3008 9.5397 10.9169 9.90722L9.6462 10.9779C8.60898 10.5486 7.66679 9.91867 6.87372 9.12423C6.08065 8.32979 5.45234 7.38651 5.02486 6.34855L6.09153 5.08189C6.45934 4.698 6.66506 4.18714 6.66593 3.65549C6.6668 3.12384 6.46275 2.61231 6.0962 2.22722C6.0962 2.22722 4.86086 0.62522 4.8402 0.604553C4.45983 0.221719 3.94412 0.00390133 3.40448 -0.00183683C2.86485 -0.00757498 2.34462 0.199227 1.9562 0.573887L1.18953 1.24055C-3.3398 6.49522 6.41353 16.1732 11.8415 15.9992C12.3897 16.0024 12.9329 15.8957 13.4391 15.6855C13.9453 15.4753 14.4042 15.1658 14.7889 14.7752Z" fill="white"/>
</g>
<defs>
<clipPath id="clip0_2907_2568">
<rect width="16" height="16" fill="white"/>
</clipPath>
</defs>
</svg>
