<svg width="14" height="14" viewBox="0 0 14 14" fill="none" xmlns="http://www.w3.org/2000/svg">
<g clip-path="url(#clip0_2907_2563)">
<path d="M13.9732 3.23242L9.06267 8.14292C8.51513 8.68907 7.77335 8.99578 7 8.99578C6.22665 8.99578 5.48487 8.68907 4.93733 8.14292L0.0268333 3.23242C0.0186667 3.32459 0 3.40801 0 3.49959V10.4996C0.00092625 11.2729 0.308514 12.0142 0.855295 12.561C1.40208 13.1077 2.1434 13.4153 2.91667 13.4163H11.0833C11.8566 13.4153 12.5979 13.1077 13.1447 12.561C13.6915 12.0142 13.9991 11.2729 14 10.4996V3.49959C14 3.40801 13.9813 3.32459 13.9732 3.23242Z" fill="white"/>
<path d="M8.23743 7.31915L13.5656 1.9904C13.3075 1.56242 12.9434 1.20817 12.5086 0.961827C12.0737 0.715481 11.5827 0.58535 11.0829 0.583984H2.91626C2.41647 0.58535 1.92547 0.715481 1.49061 0.961827C1.05575 1.20817 0.691706 1.56242 0.433594 1.9904L5.76176 7.31915C6.09051 7.64658 6.5356 7.83042 6.99959 7.83042C7.46359 7.83042 7.90868 7.64658 8.23743 7.31915Z" fill="white"/>
</g>
<defs>
<clipPath id="clip0_2907_2563">
<rect width="14" height="14" fill="white"/>
</clipPath>
</defs>
</svg>
