<svg width="12" height="11" viewBox="0 0 12 11" fill="none" xmlns="http://www.w3.org/2000/svg">
<path d="M9.5 0H2.5C1.8372 0.000793929 1.20178 0.264441 0.73311 0.73311C0.264441 1.20178 0.000793929 1.8372 0 2.5L0 8.5C0.000793929 9.1628 0.264441 9.79822 0.73311 10.2669C1.20178 10.7356 1.8372 10.9992 2.5 11H9.5C10.1628 10.9992 10.7982 10.7356 11.2669 10.2669C11.7356 9.79822 11.9992 9.1628 12 8.5V2.5C11.9992 1.8372 11.7356 1.20178 11.2669 0.73311C10.7982 0.264441 10.1628 0.000793929 9.5 0ZM2.5 1H9.5C9.79939 1.00059 10.0918 1.09076 10.3395 1.2589C10.5872 1.42705 10.7789 1.66547 10.89 1.9435L7.061 5.773C6.77921 6.05366 6.39771 6.21123 6 6.21123C5.60229 6.21123 5.22079 6.05366 4.939 5.773L1.11 1.9435C1.22107 1.66547 1.41281 1.42705 1.66052 1.2589C1.90824 1.09076 2.20061 1.00059 2.5 1ZM9.5 10H2.5C2.10218 10 1.72064 9.84196 1.43934 9.56066C1.15804 9.27936 1 8.89782 1 8.5V3.25L4.232 6.48C4.70131 6.94813 5.33713 7.21102 6 7.21102C6.66287 7.21102 7.29869 6.94813 7.768 6.48L11 3.25V8.5C11 8.89782 10.842 9.27936 10.5607 9.56066C10.2794 9.84196 9.89782 10 9.5 10Z" fill="#fff"/>
</svg>
