<svg width="212" height="114" viewBox="0 0 212 114" fill="none" xmlns="http://www.w3.org/2000/svg">
<g clip-path="url(#clip0_5453_1991)">
<path fill-rule="evenodd" clip-rule="evenodd" d="M10.4902 26.8997H19.9202L27.7802 48.8997L36.1702 26.8997H42.0002L50.2302 48.6897L58.0002 26.8997H67.5002L53.5002 65.6297H47.3402L39.0002 43.5997L30.5402 65.5997H24.4402L10.4902 26.8997ZM106.35 48.9997V47.1697C106.35 40.7897 104.444 35.6597 100.63 31.7797C96.8169 27.8997 91.8602 25.973 85.7602 25.9997C83.1016 25.9207 80.4556 26.3955 77.9904 27.394C75.5252 28.3925 73.2945 29.8928 71.4402 31.7997C69.5489 33.7384 68.0676 36.0385 67.0848 38.5624C66.1021 41.0863 65.638 43.7824 65.7202 46.4897C65.646 49.1451 66.115 51.7876 67.0986 54.2553C68.0822 56.7229 69.5597 58.9635 71.4402 60.8397C75.2402 64.673 80.1702 66.5863 86.2302 66.5797C89.7184 66.6705 93.1807 65.9589 96.3502 64.4997C99.2937 63.0163 101.807 60.8023 103.65 58.0697L95.5102 54.2197C94.2945 55.4552 92.8409 56.4316 91.2374 57.0899C89.6338 57.7482 87.9135 58.0747 86.1802 58.0497C83.4851 58.1532 80.842 57.2875 78.7302 55.6097C76.7613 53.9215 75.4803 51.5695 75.1302 48.9997H106.35ZM96.6802 41.4197H75.6002C76.3691 39.5174 77.5912 37.8318 79.1602 36.5097C81.2339 35.0075 83.7401 34.2212 86.3002 34.2697C88.6522 34.2297 90.9572 34.9293 92.8902 36.2697C94.7038 37.504 96.0411 39.3211 96.6802 41.4197Z" fill="white"/>
<path fill-rule="evenodd" clip-rule="evenodd" d="M120.82 26.9V31.16C122.449 29.5071 124.381 28.183 126.51 27.26C128.582 26.3858 130.811 25.9435 133.06 25.96C135.501 25.9218 137.922 26.4124 140.155 27.398C142.389 28.3837 144.383 29.841 146 31.67C149.527 35.49 151.293 40.38 151.3 46.34C151.379 48.9881 150.934 51.6256 149.992 54.1017C149.05 56.5777 147.629 58.8437 145.81 60.77C144.183 62.6095 142.181 64.0796 139.939 65.0816C137.697 66.0837 135.266 66.5946 132.81 66.58C130.679 66.5974 128.565 66.193 126.59 65.39C124.456 64.4554 122.513 63.133 120.86 61.49V79.78H111.16V26.9H120.82ZM170.91 26.9H180.91L190.91 51.16L202 26.9H212L187.75 79.78H177.81L185.69 62.78L170.91 26.9ZM156.31 12H166V65.6H156.3V12H156.31ZM131 34.85C129.585 34.8117 128.177 35.0704 126.868 35.6096C125.559 36.1487 124.378 36.9562 123.4 37.98C122.38 39.0749 121.59 40.3625 121.075 41.7672C120.559 43.1719 120.33 44.6654 120.4 46.16C120.328 47.679 120.556 49.1974 121.071 50.6284C121.585 52.0594 122.377 53.3749 123.4 54.5C124.355 55.4909 125.497 56.284 126.758 56.8339C128.02 57.3838 129.378 57.6797 130.754 57.7048C132.13 57.7298 133.498 57.4836 134.779 56.98C136.06 56.4765 137.229 55.7255 138.22 54.77L138.49 54.5C140.536 52.2514 141.614 49.2875 141.49 46.25C141.608 43.2403 140.53 40.3063 138.49 38.09C137.547 37.0451 136.389 36.215 135.097 35.656C133.805 35.097 132.408 34.8222 131 34.85Z" fill="white"/>
<path fill-rule="evenodd" clip-rule="evenodd" d="M22.76 0H79.06C85.0924 0.0184754 90.8723 2.4237 95.1369 6.69019C99.4015 10.9567 101.804 16.7376 101.82 22.77V25.42C100.112 24.1316 98.2386 23.0788 96.25 22.29C96.1 17.8248 94.2254 13.5915 91.0199 10.4793C87.8145 7.36705 83.5277 5.61818 79.06 5.6H22.76C18.2023 5.61319 13.8351 7.42957 10.6123 10.6523C7.38957 13.8751 5.57319 18.2423 5.56 22.8V65.8C5.57843 70.3561 7.39649 74.7202 10.6181 77.9419C13.8398 81.1635 18.204 82.9816 22.76 83H29.76L28.84 99.47L46.15 83H79.06C82.744 82.9843 86.3267 81.7922 89.2857 79.5977C92.2448 77.4031 94.4255 74.3208 95.51 70.8C96.6505 70.4504 97.7608 70.009 98.83 69.48C99.8374 68.9859 100.807 68.4176 101.73 67.78C101.229 73.4525 98.6254 78.7329 94.4312 82.5849C90.237 86.4368 84.7546 88.5822 79.06 88.6H48.37L22.5 113.2L23.88 88.6H22.76C16.7242 88.5815 10.9413 86.1735 6.67609 81.9027C2.4109 77.6319 0.010547 71.8458 0 65.81L0 22.81C0.00526231 16.7707 2.40328 10.9795 6.66904 6.70437C10.9348 2.42924 16.7207 0.0185151 22.76 0Z" fill="white"/>
</g>
<defs>
<clipPath id="clip0_5453_1991">
<rect width="211.96" height="113.19" fill="white"/>
</clipPath>
</defs>
</svg>
