<svg width="428" height="55" viewBox="0 0 428 55" fill="none" xmlns="http://www.w3.org/2000/svg">
<g clip-path="url(#clip0_5348_6199)">
<mask id="mask0_5348_6199" style="mask-type:luminance" maskUnits="userSpaceOnUse" x="0" y="0" width="428" height="55">
<path d="M428 0H0V54.9142H428V0Z" fill="white"/>
</mask>
<g mask="url(#mask0_5348_6199)">
<path d="M8.62127 6.93211C9.46913 2.89629 13.0369 0 17.1677 0H47.3583C51.7401 0 55.0094 4.01547 54.1209 8.29547C53.3137 12.1753 50.0986 15.0987 46.151 15.5532L18.4361 18.7547L18.5175 19.7314H35.0474C39.5037 19.7314 42.8274 23.8147 41.9184 28.1693C41.1181 31.9949 38.0251 34.9183 34.152 35.5016L13.4778 38.4522L13.5728 39.4628H18.0902C22.2413 39.4628 25.3479 43.268 24.5 47.331C23.6589 51.3736 20.0911 54.2631 15.9536 54.2631H7.27147C2.6659 54.2631 -0.77981 50.0373 0.163011 45.5335C0.93626 41.8368 3.79864 38.9202 7.48853 38.0791L20.3964 35.3388L20.315 34.5317H11.599C6.99337 34.5317 3.54767 30.3059 4.49049 25.8021C5.26374 22.1054 8.12612 19.1888 11.816 18.3477L24.6424 15.8584V14.7935H15.0447C10.8935 14.7935 7.78697 10.9883 8.63483 6.92532L8.62127 6.93211Z" fill="#FA00FF"/>
<path d="M71.8986 23.5503V33.2634H88.4488V38.5812H71.8986V54.2632H65.1157V18.1782H90.348V23.5503H71.8986Z" fill="white"/>
<path d="M93.0749 22.4376C92.2948 21.6983 91.9082 20.7826 91.9082 19.6973C91.9082 18.6121 92.2948 17.7506 93.0749 17.0113C93.8549 16.272 94.7842 15.8989 95.8694 15.8989C96.9547 15.8989 97.8229 16.272 98.5826 17.0113C99.3423 17.7506 99.7221 18.646 99.7221 19.6973C99.7221 20.7487 99.3423 21.6983 98.5826 22.4376C97.8229 23.1769 96.9208 23.55 95.8694 23.55C94.8181 23.55 93.8549 23.1769 93.0749 22.4376ZM99.1252 27.1314V54.2629H92.6136V27.1314H99.1252Z" fill="white"/>
<path d="M109.367 27.1316V27.7285C109.367 28.4543 109.313 29.0376 109.204 29.4921C109.096 29.9465 108.899 30.496 108.607 31.1471L109.421 31.3642C109.964 29.9533 111.043 28.7867 112.65 27.8642C114.258 26.9417 116.17 26.4805 118.375 26.4805C120.111 26.4805 121.651 26.7721 122.987 27.3487C124.323 27.9252 125.409 28.902 126.243 30.2789C127.077 31.6558 127.491 33.4601 127.491 35.7052V54.2632H120.925V36.8447C120.925 35.1422 120.43 33.8874 119.433 33.0734C118.436 32.2595 117.106 31.8525 115.445 31.8525H115.336C114.217 31.8525 113.193 32.0696 112.27 32.5037C111.348 32.9378 110.615 33.5822 110.073 34.43C109.53 35.2779 109.259 36.2818 109.259 37.4416V54.2632H102.747V27.1316H109.367Z" fill="white"/>
<path d="M152.357 28.651C154.29 30.0958 155.26 32.5037 155.26 35.868V54.2632H148.694C148.728 53.5035 148.823 52.7777 148.966 52.0927C149.108 51.4076 149.325 50.7564 149.617 50.1392L148.911 49.8679C148.118 51.4618 146.87 52.6963 145.167 53.5849C143.465 54.4734 141.694 54.9143 139.849 54.9143C137.754 54.9143 135.909 54.4056 134.315 53.395C133.263 52.7099 132.443 51.8146 131.846 50.7089C131.249 49.6033 130.95 48.3485 130.95 46.9377C130.95 44.1906 131.961 42.0743 133.989 40.5889C135.434 39.6121 137.428 38.9271 139.958 38.5269L143.214 38.0928C144.482 37.9096 145.5 37.6858 146.28 37.4145C147.06 37.1432 147.663 36.7701 148.097 36.3021C148.532 35.8341 148.749 35.2372 148.749 34.5114C148.749 33.5008 148.315 32.714 147.446 32.151C146.578 31.588 145.405 31.3099 143.919 31.3099C142.868 31.3099 141.945 31.4998 141.152 31.8797C140.358 32.2595 139.721 32.8021 139.253 33.5076C138.785 34.213 138.513 35.054 138.439 36.0308V35.9765H131.819V36.0308C131.893 34.0773 132.415 32.3884 133.392 30.9572C134.369 29.526 135.719 28.4272 137.435 27.6471C139.151 26.8671 141.226 26.4805 143.648 26.4805C147.521 26.4805 150.424 27.2063 152.357 28.651ZM147.175 41.023C146.415 41.4571 145.472 41.8166 144.353 42.1083L142.183 42.6509C141.423 42.834 140.772 43.0307 140.229 43.2478C139.687 43.4648 139.232 43.7022 138.873 43.9532C138.038 44.5704 137.625 45.4929 137.625 46.7206C137.625 47.6973 137.984 48.4909 138.71 49.1082C139.47 49.7593 140.48 50.0849 141.749 50.0849C142.909 50.0849 144.034 49.8407 145.14 49.3524C146.246 48.864 147.148 48.0568 147.853 46.9377C148.559 45.8185 148.911 44.3873 148.911 42.6509V39.1238C148.511 39.9581 147.935 40.5889 147.175 41.023Z" fill="white"/>
<path d="M166.12 27.1316V27.7285C166.12 28.4543 166.065 29.0376 165.957 29.4921C165.848 29.9465 165.652 30.496 165.36 31.1471L166.174 31.3642C166.717 29.9533 167.795 28.7867 169.403 27.8642C171.01 26.9417 172.923 26.4805 175.127 26.4805C176.864 26.4805 178.403 26.7721 179.74 27.3487C181.076 27.9252 182.161 28.902 182.995 30.2789C183.83 31.6558 184.243 33.4601 184.243 35.7052V54.2632H177.678V36.8447C177.678 35.1422 177.182 33.8874 176.185 33.0734C175.188 32.2595 173.859 31.8525 172.197 31.8525H172.089C170.969 31.8525 169.945 32.0696 169.023 32.5037C168.1 32.9378 167.368 33.5822 166.825 34.43C166.282 35.2779 166.011 36.2818 166.011 37.4416V54.2632H159.5V27.1316H166.12Z" fill="white"/>
<path d="M211.924 49.6237C210.71 51.3058 209.157 52.6082 207.258 53.5306C205.359 54.4531 203.235 54.9143 200.882 54.9143C198.169 54.9143 195.781 54.3378 193.719 53.1779C191.657 52.018 190.056 50.3562 188.917 48.1857C187.777 46.0152 187.208 43.4852 187.208 40.5889C187.208 37.6926 187.784 35.1897 188.944 33.0734C190.104 30.9572 191.711 29.3293 193.773 28.1898C195.835 27.0502 198.203 26.4805 200.882 26.4805C203.161 26.4805 205.216 26.8603 207.041 27.62C208.865 28.3797 210.378 29.526 211.572 31.0657C212.765 32.6054 213.579 34.5318 214.013 36.8447H207.231C206.905 35.3254 206.2 34.0705 205.114 33.0734C204.029 32.0764 202.672 31.5812 201.045 31.5812H200.611C199.166 31.5812 197.945 31.9814 196.948 32.775C195.951 33.5686 195.211 34.6471 194.723 36.0037C194.235 37.3602 193.99 38.8864 193.99 40.5889C193.99 42.2914 194.235 43.8786 194.723 45.2555C195.211 46.6324 195.944 47.7313 196.921 48.5656C197.897 49.3998 199.125 49.8136 200.611 49.8136H201.045C202.238 49.8136 203.29 49.5355 204.192 48.9725C205.094 48.4095 205.813 47.6973 206.335 46.8291C206.858 45.9609 207.197 44.9842 207.339 43.8989H214.122C213.871 46.0355 213.138 47.9415 211.924 49.6237Z" fill="white"/>
<path d="M217.113 22.4376C216.333 21.6983 215.947 20.7826 215.947 19.6973C215.947 18.6121 216.333 17.7506 217.113 17.0113C217.893 16.272 218.823 15.8989 219.908 15.8989C220.993 15.8989 221.861 16.272 222.621 17.0113C223.381 17.7506 223.761 18.646 223.761 19.6973C223.761 20.7487 223.381 21.6983 222.621 22.4376C221.861 23.1769 220.959 23.55 219.908 23.55C218.857 23.55 217.893 23.1769 217.113 22.4376ZM223.164 27.1314V54.2629H216.652V27.1314H223.164Z" fill="white"/>
<path d="M247.833 28.651C249.766 30.0958 250.736 32.5037 250.736 35.868V54.2632H244.17C244.204 53.5035 244.299 52.7777 244.442 52.0927C244.584 51.4076 244.801 50.7564 245.093 50.1392L244.387 49.8679C243.594 51.4618 242.346 52.6963 240.643 53.5849C238.941 54.4734 237.17 54.9143 235.325 54.9143C233.229 54.9143 231.384 54.4056 229.791 53.395C228.739 52.7099 227.918 51.8146 227.322 50.7089C226.725 49.6033 226.426 48.3485 226.426 46.9377C226.426 44.1906 227.437 42.0743 229.465 40.5889C230.91 39.6121 232.904 38.9271 235.434 38.5269L238.69 38.0928C239.958 37.9096 240.975 37.6858 241.756 37.4145C242.536 37.1432 243.139 36.7701 243.573 36.3021C244.007 35.8341 244.224 35.2372 244.224 34.5114C244.224 33.5008 243.79 32.714 242.922 32.151C242.054 31.588 240.881 31.3099 239.395 31.3099C238.344 31.3099 237.421 31.4998 236.628 31.8797C235.834 32.2595 235.196 32.8021 234.728 33.5076C234.26 34.213 233.989 35.054 233.914 36.0308V35.9765H227.294V36.0308C227.369 34.0773 227.891 32.3884 228.868 30.9572C229.845 29.526 231.195 28.4272 232.911 27.6471C234.627 26.8671 236.702 26.4805 239.124 26.4805C242.997 26.4805 245.9 27.2063 247.833 28.651ZM242.651 41.023C241.891 41.4571 240.948 41.8166 239.829 42.1083L237.659 42.6509C236.899 42.834 236.248 43.0307 235.705 43.2478C235.163 43.4648 234.708 43.7022 234.349 43.9532C233.514 44.5704 233.101 45.4929 233.101 46.7206C233.101 47.6973 233.46 48.4909 234.186 49.1082C234.946 49.7593 235.956 50.0849 237.225 50.0849C238.384 50.0849 239.51 49.8407 240.616 49.3524C241.722 48.864 242.624 48.0568 243.329 46.9377C244.035 45.8185 244.387 44.3873 244.387 42.6509V39.1238C243.987 39.9581 243.411 40.5889 242.651 41.023Z" fill="white"/>
<path d="M261.765 18.1782V54.2632H255.253V18.1782H261.765Z" fill="white"/>
<path d="M291.901 48.7825V54.3173H266.669V18.2324H273.235V48.7825H291.901Z" fill="white"/>
<path d="M297.789 53.1237C295.781 51.9299 294.241 50.2748 293.177 48.1586C292.112 46.0423 291.576 43.5734 291.576 40.7517C291.576 37.93 292.146 35.3321 293.285 33.182C294.425 31.0318 296.005 29.3768 298.033 28.2169C300.061 27.057 302.408 26.4805 305.087 26.4805C307.767 26.4805 310.046 27.057 312.033 28.2169C314.02 29.3768 315.54 31.0318 316.591 33.182C317.642 35.3321 318.165 37.8554 318.165 40.7517V42.054L298.142 42.1625C298.216 43.648 298.549 44.9638 299.146 46.1237C299.742 47.2836 300.556 48.1857 301.587 48.8369C302.618 49.488 303.805 49.8136 305.142 49.8136H305.359C306.478 49.8136 307.502 49.5966 308.424 49.1625C309.347 48.7283 310.113 48.1382 310.731 47.3989C311.348 46.6596 311.741 45.8185 311.924 44.8757H318.707C318.348 46.8291 317.547 48.5656 316.32 50.0849C315.092 51.6043 313.498 52.7913 311.545 53.6392C309.591 54.487 307.441 54.9143 305.087 54.9143C302.232 54.9143 299.797 54.3174 297.789 53.1237ZM311.707 37.7129C311.599 36.4852 311.28 35.3796 310.758 34.4029C310.236 33.4262 309.51 32.6597 308.587 32.0967C307.665 31.5337 306.532 31.2556 305.196 31.2556H304.816C303.005 31.2556 301.486 31.8797 300.258 33.1277C299.03 34.3758 298.338 35.9019 298.196 37.7129H311.707Z" fill="white"/>
<path d="M342.257 28.651C344.191 30.0958 345.161 32.5037 345.161 35.868V54.2632H338.595C338.629 53.5035 338.724 52.7777 338.866 52.0927C339.008 51.4076 339.226 50.7564 339.517 50.1392L338.812 49.8679C338.018 51.4618 336.77 52.6963 335.068 53.5849C333.365 54.4734 331.595 54.9143 329.75 54.9143C327.654 54.9143 325.809 54.4056 324.215 53.395C323.164 52.7099 322.343 51.8146 321.746 50.7089C321.149 49.6033 320.851 48.3485 320.851 46.9377C320.851 44.1906 321.861 42.0743 323.889 40.5889C325.334 39.6121 327.328 38.9271 329.858 38.5269L333.114 38.0928C334.383 37.9096 335.4 37.6858 336.18 37.4145C336.96 37.1432 337.564 36.7701 337.998 36.3021C338.432 35.8341 338.649 35.2372 338.649 34.5114C338.649 33.5008 338.215 32.714 337.347 32.151C336.478 31.588 335.305 31.3099 333.82 31.3099C332.768 31.3099 331.846 31.4998 331.052 31.8797C330.259 32.2595 329.621 32.8021 329.153 33.5076C328.685 34.213 328.414 35.054 328.339 36.0308V35.9765H321.719V36.0308C321.794 34.0773 322.316 32.3884 323.293 30.9572C324.269 29.526 325.619 28.4272 327.335 27.6471C329.051 26.8671 331.127 26.4805 333.548 26.4805C337.421 26.4805 340.324 27.2063 342.257 28.651ZM337.075 41.023C336.316 41.4571 335.373 41.8166 334.254 42.1083L332.083 42.6509C331.323 42.834 330.672 43.0307 330.13 43.2478C329.587 43.4648 329.133 43.7022 328.773 43.9532C327.939 44.5704 327.525 45.4929 327.525 46.7206C327.525 47.6973 327.885 48.4909 328.61 49.1082C329.37 49.7593 330.381 50.0849 331.649 50.0849C332.809 50.0849 333.935 49.8407 335.041 49.3524C336.146 48.864 337.048 48.0568 337.754 46.9377C338.459 45.8185 338.812 44.3873 338.812 42.6509V39.1238C338.412 39.9581 337.835 40.5889 337.075 41.023Z" fill="white"/>
<path d="M355.647 47.6159C356.115 48.396 356.753 48.9997 357.546 49.4338C358.34 49.8679 359.262 50.0849 360.314 50.0849C361.758 50.0849 362.939 49.7865 363.841 49.1896C364.743 48.5927 365.197 47.772 365.197 46.7206C365.197 45.7778 364.878 45.0317 364.248 44.4687C363.617 43.9057 362.572 43.4648 361.127 43.1392L355.755 41.9455C353.476 41.4028 351.801 40.5143 350.736 39.2866C349.671 38.0589 349.135 36.4988 349.135 34.6199C349.135 32.0492 350.166 30.0551 352.228 28.6239C354.29 27.1927 356.97 26.4805 360.259 26.4805C362.247 26.4805 364.092 26.8535 365.794 27.5929C367.497 28.3322 368.867 29.4175 369.918 30.8487C370.969 32.2799 371.566 33.9891 371.709 35.9765H365.034C364.926 34.4232 364.39 33.2362 363.434 32.4223C362.477 31.6083 361.311 31.2014 359.934 31.2014C358.557 31.2014 357.526 31.4795 356.732 32.0425C355.939 32.6054 355.538 33.3515 355.538 34.2944C355.538 35.0201 355.776 35.6577 356.244 36.2207C356.712 36.7837 357.512 37.1907 358.631 37.4416L363.786 38.5812C366.316 39.1577 368.283 40.0937 369.674 41.3757C371.064 42.6577 371.763 44.3534 371.763 46.4493C371.763 49.1285 370.752 51.2041 368.724 52.6895C366.696 54.175 363.895 54.9143 360.314 54.9143C357.817 54.9143 355.674 54.4802 353.883 53.612C352.093 52.7438 350.729 51.55 349.787 50.0307C348.844 48.5113 348.321 46.7952 348.213 44.8757H354.887C354.921 45.927 355.179 46.8359 355.647 47.6159Z" fill="white"/>
<path d="M379.977 53.1237C377.969 51.9299 376.43 50.2748 375.365 48.1586C374.3 46.0423 373.764 43.5734 373.764 40.7517C373.764 37.93 374.334 35.3321 375.473 33.182C376.613 31.0318 378.193 29.3768 380.221 28.2169C382.249 27.057 384.596 26.4805 387.276 26.4805C389.955 26.4805 392.234 27.057 394.221 28.2169C396.209 29.3768 397.728 31.0318 398.779 33.182C399.831 35.3321 400.353 37.8554 400.353 40.7517V42.054L380.33 42.1625C380.404 43.648 380.737 44.9638 381.334 46.1237C381.931 47.2836 382.745 48.1857 383.776 48.8369C384.807 49.488 385.994 49.8136 387.33 49.8136H387.547C388.666 49.8136 389.69 49.5966 390.613 49.1625C391.535 48.7283 392.302 48.1382 392.919 47.3989C393.536 46.6596 393.929 45.8185 394.113 44.8757H400.896C400.536 46.8291 399.736 48.5656 398.508 50.0849C397.28 51.6043 395.686 52.7913 393.733 53.6392C391.779 54.487 389.629 54.9143 387.276 54.9143C384.42 54.9143 381.985 54.3174 379.977 53.1237ZM393.896 37.7129C393.787 36.4852 393.468 35.3796 392.946 34.4029C392.424 33.4262 391.698 32.6597 390.775 32.0967C389.853 31.5337 388.72 31.2556 387.384 31.2556H387.004C385.193 31.2556 383.674 31.8797 382.446 33.1277C381.218 34.3758 380.527 35.9019 380.384 37.7129H393.896Z" fill="white"/>
<path d="M402.483 53.9239C402.042 53.483 401.818 52.9403 401.818 52.3095C401.818 51.6787 402.042 51.1429 402.483 50.7088C402.924 50.2747 403.466 50.0576 404.097 50.0576C404.728 50.0576 405.264 50.2679 405.698 50.6952C406.132 51.1225 406.349 51.6584 406.349 52.3095C406.349 52.9607 406.132 53.483 405.698 53.9239C405.264 54.3647 404.728 54.5886 404.097 54.5886C403.466 54.5886 402.924 54.3647 402.483 53.9239Z" fill="white"/>
<path d="M412.555 40.6972V40.9685C412.555 41.328 412.528 41.64 412.474 41.891C412.42 42.142 412.311 42.4336 412.148 42.7592L412.583 42.8949C412.888 42.1352 413.451 41.5247 414.265 41.0635C415.079 40.6022 416.049 40.3716 417.168 40.3716C418.016 40.3716 418.762 40.5276 419.406 40.8329C420.05 41.1381 420.559 41.64 420.939 42.3387C421.319 43.0373 421.509 43.9259 421.509 45.0111V54.263H417.629V45.7437C417.629 44.984 417.405 44.4142 416.964 44.0344C416.523 43.6545 415.94 43.4646 415.214 43.4646H415.133C414.665 43.4646 414.231 43.5664 413.831 43.7766C413.43 43.9869 413.112 44.2718 412.867 44.6448C412.623 45.0179 412.501 45.4452 412.501 45.9336V54.263H408.648V40.6972H412.555Z" fill="white"/>
<path d="M427.776 35.4067V54.2631H423.923V35.4067H427.776Z" fill="white"/>
</g>
</g>
<defs>
<clipPath id="clip0_5348_6199">
<rect width="428" height="55" fill="white"/>
</clipPath>
</defs>
</svg>
