<svg width="638" height="145" viewBox="0 0 638 145" fill="none" xmlns="http://www.w3.org/2000/svg">
<g clip-path="url(#clip0_5348_6171)">
<path fill-rule="evenodd" clip-rule="evenodd" d="M115.541 28.34C117.933 28.338 120.271 29.0454 122.26 30.3727C124.25 31.6999 125.801 33.5875 126.718 35.7965C127.634 38.0054 127.875 40.4366 127.41 42.7825C126.944 45.1284 125.794 47.2836 124.103 48.9754C122.413 50.6672 120.259 51.8197 117.913 52.287C115.568 52.7543 113.136 52.5155 110.927 51.6007C108.717 50.6859 106.828 49.1363 105.499 47.1479C104.17 45.1595 103.461 42.8216 103.461 40.43C103.461 37.2253 104.733 34.1516 106.998 31.8846C109.264 29.6176 112.336 28.3427 115.541 28.34Z" fill="#4184F4"/>
<path fill-rule="evenodd" clip-rule="evenodd" d="M115.541 92.05C117.933 92.048 120.271 92.7554 122.26 94.0827C124.25 95.41 125.801 97.2974 126.718 99.5064C127.634 101.715 127.875 104.147 127.41 106.492C126.944 108.838 125.794 110.994 124.103 112.685C122.413 114.377 120.259 115.53 117.913 115.997C115.568 116.464 113.136 116.225 110.927 115.311C108.717 114.396 106.828 112.846 105.499 110.858C104.17 108.87 103.461 106.532 103.461 104.14C103.461 100.935 104.733 97.8616 106.998 95.5946C109.264 93.3276 112.336 92.0526 115.541 92.05Z" fill="#4184F4"/>
<path fill-rule="evenodd" clip-rule="evenodd" d="M115.541 60.2C117.934 60.198 120.273 60.9062 122.264 62.2348C124.254 63.5634 125.805 65.4527 126.721 67.6634C127.636 69.8741 127.875 72.3069 127.408 74.6536C126.94 77.0003 125.786 79.1554 124.093 80.846C122.399 82.5366 120.242 83.6867 117.895 84.1506C115.547 84.6145 113.115 84.3714 110.906 83.452C108.697 82.5327 106.81 80.9784 105.485 78.9861C104.159 76.9937 103.455 74.6529 103.461 72.26C103.461 69.0553 104.733 65.9817 106.999 63.7146C109.264 61.4476 112.336 60.1727 115.541 60.17V60.2Z" fill="#4184F4"/>
<path fill-rule="evenodd" clip-rule="evenodd" d="M88.4795 13.73C90.5673 13.728 92.6089 14.3456 94.3455 15.5045C96.0822 16.6635 97.436 18.3116 98.2354 20.2404C99.0349 22.1691 99.244 24.2917 98.8365 26.3394C98.4289 28.3872 97.4229 30.2679 95.9459 31.7435C94.4688 33.2192 92.5872 34.2234 90.5391 34.629C88.491 35.0346 86.3686 34.8234 84.4406 34.0222C82.5126 33.2209 80.8657 31.8655 79.7084 30.1277C78.5511 28.39 77.9355 26.3479 77.9395 24.26C77.9421 21.4654 79.0534 18.7861 81.0295 16.81C83.0056 14.834 85.6849 13.7226 88.4795 13.72V13.73Z" fill="#33A852"/>
<path fill-rule="evenodd" clip-rule="evenodd" d="M88.4209 109.76C90.5079 109.758 92.5486 110.375 94.2849 111.533C96.0211 112.691 97.3749 114.338 98.1749 116.266C98.9749 118.193 99.1853 120.315 98.7794 122.362C98.3734 124.409 97.3694 126.29 95.8944 127.766C94.4193 129.243 92.5395 130.249 90.4927 130.657C88.446 131.064 86.3242 130.856 84.3958 130.058C82.4675 129.26 80.8192 127.907 79.6595 126.172C78.4999 124.437 77.8809 122.397 77.8809 120.31C77.8809 117.514 78.991 114.832 80.9673 112.854C82.9437 110.875 85.6246 109.763 88.4209 109.76Z" fill="#33A852"/>
<path fill-rule="evenodd" clip-rule="evenodd" d="M88.4209 77.93C90.5079 77.928 92.5486 78.5451 94.2849 79.7032C96.0211 80.8612 97.3749 82.5082 98.1749 84.4358C98.9749 86.3634 99.1853 88.485 98.7794 90.5321C98.3734 92.5793 97.3694 94.46 95.8944 95.9365C94.4193 97.4129 92.5395 98.4187 90.4927 98.8265C88.446 99.2344 86.3242 99.0261 84.3958 98.2279C82.4675 97.4297 80.8192 96.0774 79.6595 94.3423C78.4999 92.6071 77.8809 90.567 77.8809 88.48C77.8809 85.6837 78.991 83.0018 80.9673 81.0236C82.9437 79.0453 85.6246 77.9327 88.4209 77.93Z" fill="#33A852"/>
<path fill-rule="evenodd" clip-rule="evenodd" d="M88.4209 45.5C90.5083 45.498 92.5494 46.1154 94.2859 47.2738C96.0224 48.4323 97.3761 50.0799 98.1759 52.0081C98.9756 53.9363 99.1854 56.0583 98.7786 58.1057C98.3719 60.1532 97.3669 62.0339 95.8908 63.51C94.4148 64.986 92.534 65.991 90.4866 66.3978C88.4392 66.8045 86.3171 66.5948 84.3889 65.795C82.4608 64.9953 80.8132 63.6415 79.6547 61.905C78.4962 60.1686 77.8789 58.1275 77.8809 56.04C77.8809 53.2446 78.9913 50.5637 80.968 48.5871C82.9446 46.6105 85.6255 45.5 88.4209 45.5Z" fill="#33A852"/>
<path fill-rule="evenodd" clip-rule="evenodd" d="M61.3097 0C63.066 0 64.7829 0.520805 66.2432 1.49655C67.7035 2.4723 68.8416 3.85917 69.5137 5.48178C70.1859 7.10439 70.3617 8.88988 70.0191 10.6124C69.6764 12.335 68.8307 13.9172 67.5888 15.1591C66.3469 16.401 64.7647 17.2467 63.0421 17.5894C61.3195 17.932 59.5341 17.7562 57.9115 17.084C56.2889 16.4119 54.902 15.2738 53.9262 13.8135C52.9505 12.3532 52.4297 10.6363 52.4297 8.88C52.4297 6.52488 53.3653 4.26621 55.0306 2.60089C56.6959 0.935568 58.9546 0 61.3097 0Z" fill="#FBBB03"/>
<path fill-rule="evenodd" clip-rule="evenodd" d="M61.3097 126.77C63.0664 126.77 64.7837 127.291 66.2442 128.267C67.7047 129.243 68.8429 130.631 69.5147 132.254C70.1865 133.877 70.3618 135.663 70.0183 137.386C69.6749 139.109 68.8282 140.691 67.5853 141.933C66.3424 143.174 64.7592 144.019 63.036 144.361C61.3128 144.702 59.527 144.525 57.9045 143.851C56.2821 143.178 54.8959 142.038 53.9214 140.576C52.9468 139.115 52.4277 137.397 52.4297 135.64C52.4297 134.474 52.6595 133.32 53.1058 132.243C53.5522 131.166 54.2065 130.188 55.0312 129.364C55.8559 128.541 56.8349 127.887 57.9122 127.442C58.9895 126.997 60.144 126.769 61.3097 126.77Z" fill="#FBBB03"/>
<path fill-rule="evenodd" clip-rule="evenodd" d="M61.3097 94.98C63.0636 94.982 64.7775 95.5039 66.2349 96.4797C67.6922 97.4556 68.8276 98.8416 69.4974 100.463C70.1672 102.083 70.3414 103.867 69.998 105.587C69.6547 107.307 68.8091 108.886 67.5682 110.126C66.3273 111.365 64.7468 112.209 63.0265 112.55C61.3061 112.892 59.5232 112.716 57.903 112.044C56.2828 111.372 54.8981 110.235 53.9239 108.777C52.9497 107.318 52.4297 105.604 52.4297 103.85C52.4297 102.684 52.6595 101.53 53.1058 100.453C53.5522 99.3765 54.2065 98.3983 55.0312 97.5745C55.8559 96.7507 56.8349 96.0975 57.9122 95.6523C58.9895 95.2072 60.144 94.9787 61.3097 94.98Z" fill="#FBBB03"/>
<path fill-rule="evenodd" clip-rule="evenodd" d="M61.3097 63.35C63.066 63.35 64.7829 63.8708 66.2432 64.8466C67.7035 65.8223 68.8416 67.2092 69.5138 68.8318C70.1859 70.4544 70.3617 72.2399 70.0191 73.9624C69.6764 75.685 68.8307 77.2672 67.5888 78.5091C66.3469 79.751 64.7647 80.5968 63.0421 80.9394C61.3196 81.282 59.5341 81.1062 57.9115 80.4341C56.2889 79.762 54.902 78.6238 53.9262 77.1635C52.9505 75.7032 52.4297 73.9863 52.4297 72.23C52.4284 71.0635 52.6572 69.9082 53.103 68.8302C53.5488 67.7523 54.2028 66.7728 55.0277 65.948C55.8525 65.1231 56.832 64.4691 57.9099 64.0233C58.9879 63.5775 60.1432 63.3487 61.3097 63.35Z" fill="#FBBB03"/>
<path fill-rule="evenodd" clip-rule="evenodd" d="M61.3097 31.66C63.0636 31.662 64.7775 32.1839 66.2349 33.1597C67.6922 34.1356 68.8276 35.5216 69.4974 37.1425C70.1672 38.7635 70.3414 40.5466 69.998 42.2666C69.6547 43.9865 68.8091 45.5661 67.5682 46.8056C66.3273 48.0451 64.7468 48.8889 63.0265 49.2303C61.3061 49.5717 59.5232 49.3955 57.903 48.7239C56.2828 48.0522 54.8981 46.9153 53.9239 45.4569C52.9497 43.9984 52.4297 42.2839 52.4297 40.53C52.4297 39.3643 52.6595 38.2101 53.1058 37.1333C53.5522 36.0565 54.2065 35.0782 55.0312 34.2544C55.8559 33.4306 56.8349 32.7775 57.9122 32.3323C58.9895 31.8872 60.144 31.6587 61.3097 31.66Z" fill="#FBBB03"/>
<path fill-rule="evenodd" clip-rule="evenodd" d="M33.8704 16.93C35.3973 16.93 36.8899 17.3828 38.1594 18.2311C39.4289 19.0794 40.4184 20.285 41.0028 21.6957C41.5871 23.1063 41.7399 24.6586 41.4421 26.1561C41.1442 27.6536 40.4089 29.0292 39.3293 30.1089C38.2496 31.1886 36.874 31.9238 35.3765 32.2217C33.879 32.5196 32.3267 32.3667 30.9161 31.7824C29.5054 31.198 28.2997 30.2086 27.4515 28.939C26.6032 27.6695 26.1504 26.1769 26.1504 24.65C26.1491 23.6359 26.3479 22.6314 26.7354 21.6941C27.1229 20.7569 27.6915 19.9053 28.4086 19.1882C29.1257 18.4711 29.9773 17.9025 30.9145 17.515C31.8518 17.1275 32.8562 16.9287 33.8704 16.93Z" fill="#E94234"/>
<path fill-rule="evenodd" clip-rule="evenodd" d="M33.8704 112.16C35.3973 112.16 36.8898 112.613 38.1594 113.461C39.4289 114.309 40.4184 115.515 41.0027 116.926C41.5871 118.336 41.7399 119.889 41.4421 121.386C41.1442 122.884 40.4089 124.259 39.3293 125.339C38.2496 126.419 36.874 127.154 35.3765 127.452C33.879 127.75 32.3267 127.597 30.9161 127.012C29.5054 126.428 28.2997 125.439 27.4514 124.169C26.6032 122.899 26.1504 121.407 26.1504 119.88C26.1504 117.833 26.9637 115.869 28.4115 114.421C29.8593 112.973 31.8229 112.16 33.8704 112.16Z" fill="#E94234"/>
<path fill-rule="evenodd" clip-rule="evenodd" d="M33.8704 80.72C35.3973 80.72 36.8898 81.1728 38.1594 82.0211C39.4289 82.8693 40.4184 84.0751 41.0027 85.4857C41.5871 86.8964 41.7399 88.4486 41.4421 89.9461C41.1442 91.4436 40.4089 92.8192 39.3293 93.8989C38.2496 94.9785 36.874 95.7138 35.3765 96.0117C33.879 96.3095 32.3267 96.1567 30.9161 95.5724C29.5054 94.9881 28.2997 93.9986 27.4514 92.729C26.6032 91.4595 26.1504 89.9669 26.1504 88.44C26.1504 86.3925 26.9637 84.4289 28.4115 82.9811C29.8593 81.5334 31.8229 80.72 33.8704 80.72Z" fill="#E94234"/>
<path fill-rule="evenodd" clip-rule="evenodd" d="M33.8704 48.36C35.3977 48.36 36.8907 48.8131 38.1604 49.6618C39.4302 50.5105 40.4197 51.7168 41.0037 53.128C41.5877 54.5393 41.74 56.092 41.4413 57.5898C41.1426 59.0876 40.4064 60.4632 39.3257 61.5424C38.2451 62.6217 36.8686 63.3562 35.3704 63.6529C33.8722 63.9496 32.3196 63.7953 30.9092 63.2095C29.4987 62.6236 28.2937 61.6326 27.4466 60.3617C26.5995 59.0909 26.1484 57.5973 26.1504 56.07C26.1504 55.0567 26.3502 54.0533 26.7382 53.1172C27.1263 52.1812 27.6951 51.3308 28.4121 50.6147C29.1291 49.8986 29.9803 49.3309 30.9168 48.944C31.8534 48.5572 32.8571 48.3587 33.8704 48.36Z" fill="#E94234"/>
<path fill-rule="evenodd" clip-rule="evenodd" d="M6.42999 33.89C7.70173 33.89 8.94491 34.2671 10.0023 34.9737C11.0597 35.6802 11.8839 36.6844 12.3705 37.8593C12.8572 39.0343 12.9846 40.3271 12.7365 41.5744C12.4883 42.8217 11.876 43.9674 10.9767 44.8667C10.0774 45.766 8.93173 46.3784 7.68443 46.6265C6.43714 46.8746 5.14427 46.7472 3.96935 46.2606C2.79442 45.7739 1.79019 44.9497 1.08365 43.8923C0.377111 42.8349 0 41.5917 0 40.32C0 38.6147 0.677442 36.9792 1.8833 35.7733C3.08916 34.5675 4.72465 33.89 6.42999 33.89Z" fill="#4184F4"/>
<path fill-rule="evenodd" clip-rule="evenodd" d="M6.42999 97.68C7.70173 97.68 8.94491 98.0571 10.0023 98.7637C11.0597 99.4702 11.8839 100.474 12.3705 101.649C12.8572 102.824 12.9846 104.117 12.7365 105.364C12.4883 106.612 11.876 107.757 10.9767 108.657C10.0774 109.556 8.93173 110.168 7.68443 110.416C6.43714 110.665 5.14427 110.537 3.96935 110.051C2.79442 109.564 1.79019 108.74 1.08365 107.682C0.377111 106.625 0 105.382 0 104.11C0 102.405 0.677442 100.769 1.8833 99.5633C3.08916 98.3574 4.72465 97.68 6.42999 97.68Z" fill="#4184F4"/>
<path fill-rule="evenodd" clip-rule="evenodd" d="M6.42999 65.83C7.70173 65.83 8.94491 66.2071 10.0023 66.9137C11.0597 67.6202 11.8839 68.6244 12.3705 69.7993C12.8572 70.9743 12.9846 72.2671 12.7365 73.5144C12.4883 74.7617 11.876 75.9075 10.9767 76.8067C10.0774 77.706 8.93173 78.3184 7.68443 78.5665C6.43714 78.8146 5.14427 78.6872 3.96935 78.2006C2.79442 77.7139 1.79019 76.8897 1.08365 75.8323C0.377111 74.7749 0 73.5317 0 72.26C0 70.5547 0.677442 68.9192 1.8833 67.7133C3.08916 66.5075 4.72465 65.83 6.42999 65.83Z" fill="#4184F4"/>
<path fill-rule="evenodd" clip-rule="evenodd" d="M447.58 31.26C451.7 31.26 455.81 31.26 459.93 31.26C459.85 59.18 459.85 87.1034 459.93 115.03C455.81 114.98 451.69 115.03 447.57 115.03C447.63 87.1167 447.63 59.2067 447.57 31.3L447.58 31.26Z" fill="white"/>
<path fill-rule="evenodd" clip-rule="evenodd" d="M409.001 71.15C405.629 71.9655 402.625 73.8793 400.461 76.59C394.981 83.33 395.121 94.09 401.081 100.5C402.759 102.418 404.9 103.875 407.3 104.733C409.7 105.591 412.28 105.821 414.794 105.401C417.308 104.981 419.673 103.925 421.664 102.334C423.655 100.743 425.206 98.6694 426.171 96.31C429.171 89.4 428.171 80.53 422.741 75.06C420.986 73.2727 418.797 71.9724 416.388 71.2869C413.979 70.6014 411.433 70.5542 409.001 71.15ZM397.771 63.53C404.301 59.46 412.771 58.14 419.971 61.28C422.651 62.28 424.781 64.28 426.921 66.12C426.981 64.52 426.981 62.92 426.981 61.31H438.831C438.831 78.21 438.831 95.1067 438.831 112C438.831 119 437.641 126.26 433.591 132.09C429.956 137.24 424.436 140.748 418.231 141.85C412.371 143.096 406.273 142.56 400.721 140.31C394.233 137.421 389.076 132.188 386.281 125.66C389.861 124.08 393.511 122.66 397.091 121.09C399.091 125.56 402.841 129.5 407.721 130.78C413.221 132.06 419.811 130.86 423.461 126.22C427.111 121.58 427.161 115.56 426.901 110.04C424.192 112.933 420.728 115.012 416.901 116.04C408.281 118.22 398.901 115.04 392.701 108.82C389.581 105.735 387.201 101.983 385.738 97.8461C384.276 93.7094 383.769 89.2952 384.256 84.9346C384.742 80.5741 386.21 76.3804 388.549 72.6682C390.888 68.9559 394.037 65.8215 397.761 63.5L397.771 63.53Z" fill="white"/>
<path fill-rule="evenodd" clip-rule="evenodd" d="M283.999 71.11C279.971 71.9997 276.442 74.4107 274.149 77.84C269.609 84.64 270.149 94.6 275.859 100.6C277.699 102.556 280.007 104.01 282.565 104.825C285.123 105.641 287.847 105.79 290.479 105.26C293.686 104.605 296.614 102.982 298.869 100.61C305.379 93.77 305.209 81.71 298.359 75.16C296.481 73.3595 294.189 72.0485 291.685 71.3422C289.181 70.636 286.541 70.5562 283.999 71.11ZM284.349 59.7C289.041 59.1967 293.785 59.837 298.175 61.5663C302.565 63.2956 306.471 66.0623 309.559 69.63C317.779 79.27 318.349 94.4 311.039 104.71C308.667 108.061 305.597 110.859 302.041 112.911C298.486 114.963 294.528 116.222 290.439 116.6C282.785 117.427 275.113 115.211 269.079 110.43C266.021 107.877 263.52 104.723 261.732 101.163C259.944 97.6032 258.906 93.714 258.682 89.7366C258.459 85.7591 259.056 81.7782 260.435 78.0408C261.814 74.3034 263.946 70.8892 266.699 68.01C271.438 63.2725 277.679 60.334 284.349 59.7Z" fill="white"/>
<path fill-rule="evenodd" clip-rule="evenodd" d="M481.64 76.86C479.45 79.9096 478.354 83.6095 478.53 87.36C487.13 83.82 495.717 80.2533 504.29 76.66C503.422 74.9376 502.114 73.4755 500.498 72.4218C498.882 71.368 497.017 70.7603 495.09 70.66C492.502 70.4574 489.906 70.924 487.55 72.0151C485.195 73.1062 483.159 74.785 481.64 76.89V76.86ZM473.76 67.86C477.057 64.3558 481.248 61.8176 485.88 60.5189C490.513 59.2202 495.412 59.2102 500.05 60.49C506.49 62.29 511.8 67.02 515.14 72.73C516.73 75.27 517.65 78.13 518.88 80.85C506.19 86.3 493.37 91.46 480.62 96.77C482.16 100.227 484.95 102.974 488.43 104.46C491.063 105.496 493.917 105.837 496.72 105.45C499.522 105.063 502.177 103.961 504.43 102.25C506.055 100.917 507.494 99.3737 508.71 97.66C511.91 99.82 515.14 101.96 518.35 104.12C515.907 107.718 512.681 110.715 508.914 112.886C505.146 115.058 500.936 116.348 496.598 116.659C492.261 116.969 487.909 116.293 483.871 114.681C479.832 113.069 476.211 110.562 473.28 107.35C463.61 96.54 463.9 78.43 473.79 67.86H473.76Z" fill="white"/>
<path fill-rule="evenodd" clip-rule="evenodd" d="M346.72 71.11C343.606 71.804 340.775 73.4252 338.6 75.76C332.32 82.43 332.38 94.01 338.69 100.65C340.187 102.233 341.997 103.488 344.004 104.336C346.011 105.184 348.172 105.606 350.35 105.576C352.529 105.546 354.678 105.064 356.66 104.161C358.643 103.258 360.417 101.954 361.87 100.33C368.11 93.45 367.87 81.6 361.09 75.15C359.209 73.3522 356.913 72.0465 354.407 71.3488C351.9 70.651 349.26 70.5827 346.72 71.15V71.11ZM346 59.87C350.534 59.1931 355.163 59.6006 359.509 61.059C363.855 62.5175 367.793 64.9852 371 68.26C380.42 77.86 381.34 94.26 373.42 105.05C371.054 108.296 368.023 111.001 364.53 112.984C361.036 114.967 357.16 116.183 353.16 116.55C345.709 117.35 338.236 115.252 332.29 110.69C327.85 107.239 324.529 102.554 322.742 97.2228C320.956 91.8912 320.784 86.1506 322.249 80.7218C323.713 75.2929 326.749 70.4177 330.975 66.7079C335.2 62.9982 340.427 60.6194 346 59.87Z" fill="white"/>
<path fill-rule="evenodd" clip-rule="evenodd" d="M181.299 40.8C185.652 36.5467 190.818 33.2148 196.488 31.0035C202.158 28.7922 208.216 27.7469 214.299 27.93C225.235 28.0601 235.693 32.4304 243.469 40.12C240.609 42.9067 237.786 45.73 234.999 48.59C228.81 42.7991 220.582 39.6893 212.11 39.9385C203.638 40.1876 195.607 43.7754 189.769 49.92C186.502 53.4458 184.048 57.6458 182.581 62.2235C181.114 66.8012 180.669 71.6452 181.278 76.4134C181.888 81.1817 183.536 85.7582 186.107 89.8198C188.679 93.8815 192.11 97.3292 196.159 99.92C203.519 104.57 212.749 105.65 221.159 103.8C227.108 102.452 232.478 99.2564 236.499 94.67C239.919 90.67 241.499 85.52 242.149 80.41C232.459 80.41 222.769 80.41 213.079 80.41C213.079 76.41 213.079 72.34 213.079 68.3H253.889C255.599 78.44 254.039 89.35 248.739 98.3C245.971 102.673 242.368 106.458 238.137 109.438C233.906 112.419 229.129 114.536 224.079 115.67C215.273 117.664 206.083 117.127 197.569 114.12C186.455 110.079 177.342 101.884 172.149 91.26C168.032 82.7797 166.796 73.187 168.629 63.94C170.406 55.1311 174.826 47.073 181.299 40.84V40.8Z" fill="white"/>
<path fill-rule="evenodd" clip-rule="evenodd" d="M627.779 34.62H637.999V115.52H627.779V34.62Z" fill="white"/>
<path fill-rule="evenodd" clip-rule="evenodd" d="M569.14 83.67H595.14L582.14 48.44L569.14 83.67ZM588.37 34.62L618.37 115.53H606.87L598.87 93.87H565.38L557.38 115.53H545.9L575.9 34.62H588.37Z" fill="white"/>
</g>
<defs>
<clipPath id="clip0_5348_6171">
<rect width="638" height="144.51" fill="white"/>
</clipPath>
</defs>
</svg>
