<svg width="180" height="77" viewBox="0 0 180 77" fill="none" xmlns="http://www.w3.org/2000/svg">
<path d="M109.505 4.13796L105.215 18.007C104.442 20.491 103.589 23.404 102.902 26.433C102.13 23.624 101.375 21.172 100.434 18.133L95.9959 4.13696H89.0059L99.0189 34.246H106.942L117.267 4.13796H109.505Z" fill="white"/>
<path d="M156.994 4.138H149.569L146.757 17.303C146.274 19.9437 145.82 22.5895 145.394 25.24C144.988 22.6948 144.552 20.1547 144.086 17.62L141.571 4.138H133.783L131.023 17.367C131.021 17.372 130.148 22.147 130.148 22.147C129.938 23.3325 129.721 24.5169 129.498 25.7C129.098 23.518 128.566 20.733 127.928 17.501L125.138 4.138H118.219L125.533 34.246H133.211L136.137 21.202C136.707 18.287 137.083 15.718 137.457 13.035C137.897 15.971 138.314 18.362 138.865 21.109L141.541 34.246H148.981L156.994 4.138Z" fill="white"/>
<path d="M160.207 4.13796L160.279 34.246H179.933L179.908 28.103H167.21L167.185 21.877H178.522L178.532 15.737H167.16L167.15 10.277H179.198L179.213 4.13696H160.208" fill="white"/>
<path d="M75.9794 36.136L40.8714 1.03599C40.558 0.721869 40.1857 0.472653 39.7759 0.302612C39.366 0.13257 38.9266 0.0450439 38.4829 0.0450439C38.0392 0.0450439 37.5998 0.13257 37.19 0.302612C36.7801 0.472653 36.4078 0.721869 36.0944 1.03599L25.8394 11.287L30.7274 16.176C39.0274 13.302 48.6004 15.15 55.2314 21.781C64.4774 31.031 64.4774 46.021 55.2314 55.271C45.9814 64.524 30.9874 64.524 21.7374 55.271C13.5624 47.094 12.6274 34.435 18.9074 25.216L15.4104 21.716L0.986421 36.137C0.354634 36.7724 0 37.632 0 38.528C0 39.424 0.354634 40.2836 0.986421 40.919L36.0944 76.02C36.4081 76.3341 36.7807 76.5833 37.1908 76.7533C37.6009 76.9233 38.0405 77.0108 38.4844 77.0108C38.9284 77.0108 39.3679 76.9233 39.778 76.7533C40.1881 76.5833 40.5607 76.3341 40.8744 76.02L75.9784 40.92C76.6106 40.2844 76.9654 39.4244 76.9654 38.528C76.9654 37.6316 76.6106 36.7716 75.9784 36.136" fill="white"/>
<path d="M55.2289 21.782C48.5989 15.151 39.0259 13.303 30.7259 16.177L36.1869 21.642C41.2829 20.949 46.6299 22.545 50.5469 26.462C57.2109 33.128 57.2109 43.928 50.5469 50.591C43.8819 57.255 33.0809 57.255 26.4179 50.591C20.8389 45.013 19.9509 36.541 23.7089 30.019L38.4819 44.791V34.373L8.21289 4.10297V14.528L18.9069 25.218C12.6249 34.436 13.5609 47.095 21.7369 55.272C30.9859 64.525 45.9799 64.525 55.2299 55.272C64.4759 46.022 64.4749 31.032 55.2289 21.782Z" fill="#0FAFA9"/>
<path d="M98.5701 53.667L97.6381 57.094H95.5801L99.0801 44.972H101.617L105.16 57.094H103.021L102.034 53.667H98.5701ZM101.704 51.994L100.844 49.006C100.636 48.256 100.456 47.431 100.29 46.728H100.255C100.096 47.438 99.9301 48.278 99.7371 48.999L98.8941 51.994H101.704Z" fill="white"/>
<path d="M113.717 54.47C113.717 55.511 113.747 56.381 113.782 57.094H112.042L111.946 55.77H111.899C111.567 56.384 110.789 57.292 109.376 57.292C107.94 57.292 106.633 56.333 106.633 53.472V48.338H108.627V53.102C108.627 54.556 109.04 55.488 110.096 55.488C110.893 55.488 111.411 54.871 111.616 54.305C111.683 54.115 111.724 53.877 111.724 53.621V48.338H113.717V54.47Z" fill="white"/>
<path d="M118.394 46.088V48.338H120.289V49.988H118.394V53.851C118.394 54.922 118.65 55.467 119.413 55.467C119.773 55.467 119.961 55.44 120.186 55.371L120.226 57.056C119.928 57.18 119.404 57.283 118.776 57.283C118.045 57.283 117.436 57.006 117.066 56.561C116.638 56.058 116.442 55.252 116.442 54.105V49.987H115.318V48.338H116.442V46.708L118.394 46.088Z" fill="white"/>
<path d="M125.379 57.292C123.157 57.292 121.438 55.587 121.438 52.78C121.438 49.908 123.139 48.14 125.513 48.14C127.857 48.14 129.426 49.975 129.426 52.63C129.426 55.85 127.395 57.292 125.396 57.292H125.379ZM125.427 55.682C126.569 55.682 127.363 54.459 127.363 52.696C127.363 51.32 126.815 49.748 125.441 49.748C124.042 49.748 123.469 51.266 123.469 52.725C123.469 54.41 124.226 55.682 125.411 55.682H125.427Z" fill="white"/>
<path d="M131.315 50.942C131.315 49.93 131.287 49.096 131.25 48.338H132.951L133.042 49.623H133.09C133.47 48.945 134.186 48.14 135.515 48.14C136.559 48.14 137.361 48.784 137.7 49.755H137.732C138.008 49.275 138.339 48.909 138.695 48.654C139.144 48.319 139.64 48.14 140.297 48.14C141.598 48.14 142.925 49.131 142.925 51.94V57.094H140.982V52.25C140.982 50.79 140.528 49.933 139.578 49.933C138.897 49.933 138.397 50.468 138.193 51.099C138.126 51.3393 138.092 51.5876 138.092 51.837V57.093H136.15V52.03C136.15 50.796 135.705 49.933 134.79 49.933C134.043 49.933 133.545 50.585 133.356 51.185C133.287 51.4228 133.254 51.6695 133.258 51.917V57.093H131.315V50.942Z" fill="white"/>
<path d="M148.725 57.292C146.502 57.292 144.783 55.587 144.783 52.78C144.783 49.908 146.485 48.14 148.859 48.14C151.204 48.14 152.772 49.975 152.772 52.63C152.772 55.85 150.74 57.292 148.741 57.292H148.725ZM148.773 55.682C149.916 55.682 150.708 54.459 150.708 52.696C150.708 51.32 150.161 49.748 148.786 49.748C147.388 49.748 146.815 51.266 146.815 52.725C146.815 54.41 147.572 55.682 148.757 55.682H148.773Z" fill="white"/>
<path d="M156.938 46.088V48.338H158.834V49.988H156.938V53.851C156.938 54.922 157.195 55.467 157.957 55.467C158.318 55.467 158.505 55.44 158.73 55.371L158.77 57.056C158.472 57.18 157.95 57.283 157.321 57.283C156.59 57.283 155.98 57.006 155.61 56.561C155.182 56.058 154.987 55.252 154.987 54.105V49.987H153.863V48.338H154.987V46.708L156.938 46.088Z" fill="white"/>
<path d="M161.571 46.985C162.296 46.985 162.753 46.423 162.751 45.721C162.744 45.007 162.29 44.462 161.58 44.462C160.876 44.462 160.402 45.013 160.404 45.721C160.402 46.423 160.861 46.985 161.556 46.985H161.571ZM162.574 57.094V48.338H160.581V57.094H162.574Z" fill="white"/>
<path d="M166.223 48.338L167.499 52.784C167.724 53.554 167.889 54.26 168.037 54.972H168.085C168.233 54.248 168.408 53.56 168.62 52.784L169.868 48.338H171.962L168.955 57.094H166.993L164.068 48.338H166.223Z" fill="white"/>
<path d="M174.659 53.312C174.714 54.9 175.819 55.593 177.093 55.593C178.009 55.593 178.665 55.433 179.267 55.187L179.562 56.711C178.887 57.029 177.952 57.266 176.809 57.266C174.251 57.266 172.754 55.511 172.754 52.827C172.754 50.41 174.073 48.124 176.606 48.124C179.166 48.124 180 50.464 180 52.382C180.004 52.6991 179.98 53.016 179.93 53.329L174.659 53.312ZM178.125 51.769C178.133 50.958 177.815 49.635 176.481 49.635C175.256 49.635 174.746 50.872 174.657 51.769H178.125Z" fill="white"/>
</svg>
