<svg width="10" height="12" viewBox="0 0 10 12" fill="none" xmlns="http://www.w3.org/2000/svg">
<path d="M4.89913 11.6999L4.55929 11.4086C4.09078 11.0163 0 7.4834 0 4.89913C0 2.19342 2.19342 0 4.89913 0C7.60484 0 9.79826 2.19342 9.79826 4.89913C9.79826 7.48342 5.70747 11.0164 5.24091 11.4106L4.89913 11.6999ZM4.89913 1.05933C2.77948 1.06173 1.06176 2.77945 1.05936 4.89911C1.05936 6.5226 3.57617 9.11611 4.89913 10.3031C6.22211 9.11563 8.7389 6.52064 8.7389 4.89911C8.7365 2.77945 7.0188 1.06176 4.89913 1.05933Z" fill="#fff"/>
<path d="M4.89911 6.84108C3.82659 6.84108 2.95714 5.97163 2.95714 4.89911C2.95714 3.82659 3.82659 2.95714 4.89911 2.95714C5.97163 2.95714 6.84108 3.82659 6.84108 4.89911C6.84108 5.97163 5.97165 6.84108 4.89911 6.84108ZM4.89911 3.9281C4.36285 3.9281 3.92812 4.36283 3.92812 4.89909C3.92812 5.43535 4.36285 5.87007 4.89911 5.87007C5.43537 5.87007 5.8701 5.43535 5.8701 4.89909C5.8701 4.36283 5.43539 3.9281 4.89911 3.9281Z" fill="#fff"/>
</svg>
