<svg width="165" height="25" viewBox="0 0 165 25" fill="none" xmlns="http://www.w3.org/2000/svg">
<g clip-path="url(#clip0_3547_1557)">
<path d="M30.4097 14.2592C30.9436 13.9506 31.3805 13.4814 31.696 12.8642C32.0115 12.2469 32.1814 11.4938 32.1814 10.6049C32.1814 9.28391 31.8538 8.25922 31.1863 7.54317C30.5189 6.82712 29.7059 6.46909 28.7472 6.46909C27.7885 6.46909 26.9755 6.82712 26.3323 7.54317C25.6892 8.25922 25.3615 9.27156 25.3615 10.6049C25.3615 11.9382 25.677 12.9506 26.3081 13.6666C26.9391 14.3827 27.74 14.7407 28.6987 14.7407C29.2933 14.716 29.8636 14.5679 30.4097 14.2592ZM25.228 16.9012C24.1966 16.3086 23.3957 15.4567 22.8132 14.3703C22.2307 13.2839 21.9395 12.0246 21.9395 10.5926C21.9395 9.16045 22.2428 7.91354 22.8374 6.81477C23.4442 5.72835 24.2572 4.8765 25.3009 4.28391C26.3445 3.69132 27.5094 3.39502 28.7836 3.39502C30.0699 3.39502 31.2228 3.69132 32.2664 4.28391C33.31 4.8765 34.1352 5.72835 34.7298 6.81477C35.3365 7.90119 35.6278 9.16045 35.6278 10.5926C35.6278 12.0246 35.3244 13.2716 34.7055 14.3703C34.0866 15.4567 33.2493 16.3086 32.2057 16.9012C31.1621 17.4938 29.985 17.7901 28.6865 17.7901C27.3881 17.7901 26.2474 17.4938 25.228 16.9012Z" fill="white"/>
<path d="M66.4992 9.28391C66.487 8.38267 66.1715 7.65428 65.5648 7.11107C64.958 6.56786 64.2056 6.29625 63.3319 6.29625C62.4946 6.29625 61.7908 6.55551 61.2326 7.08638C60.6622 7.61724 60.3103 8.34564 60.189 9.28391H66.4992ZM69.8848 11.6543H60.1404C60.2254 12.6666 60.553 13.4444 61.1476 14.0246C61.7422 14.5925 62.4703 14.8765 63.3319 14.8765C64.5818 14.8765 65.4677 14.3086 66.0016 13.1851H69.63C69.2417 14.5308 68.5136 15.6296 67.4214 16.4938C66.3293 17.358 64.9944 17.7901 63.4047 17.7901C62.1184 17.7901 60.9656 17.4938 59.9584 16.9012C58.939 16.3086 58.1503 15.4567 57.5799 14.3703C57.0096 13.2839 56.7305 12.0246 56.7305 10.5926C56.7305 9.16045 57.0096 7.88885 57.5678 6.79008C58.126 5.70366 58.9148 4.86416 59.922 4.27156C60.9292 3.67897 62.0942 3.39502 63.4047 3.39502C64.7153 3.39502 65.8075 3.67897 66.8025 4.24687C67.8097 4.81477 68.5864 5.62959 69.1325 6.67897C69.6907 7.72835 69.9577 8.92588 69.9577 10.2963C69.9819 10.7901 69.9455 11.2469 69.8848 11.6543Z" fill="white"/>
<path d="M119.858 9.28391C119.846 8.38267 119.53 7.65428 118.924 7.11107C118.317 6.56786 117.565 6.29625 116.691 6.29625C115.854 6.29625 115.15 6.55551 114.592 7.08638C114.021 7.61724 113.669 8.34564 113.548 9.28391H119.858ZM123.256 11.6543H113.512C113.596 12.6666 113.924 13.4444 114.519 14.0246C115.113 14.5925 115.841 14.8765 116.703 14.8765C117.953 14.8765 118.839 14.3086 119.373 13.1851H123.001C122.613 14.5308 121.885 15.6296 120.793 16.4938C119.7 17.358 118.366 17.7901 116.776 17.7901C115.49 17.7901 114.337 17.4938 113.329 16.9012C112.31 16.3086 111.521 15.4567 110.951 14.3703C110.381 13.2839 110.102 12.0246 110.102 10.5926C110.102 9.16045 110.381 7.88885 110.939 6.79008C111.497 5.70366 112.286 4.86416 113.293 4.27156C114.3 3.67897 115.465 3.39502 116.776 3.39502C118.086 3.39502 119.179 3.67897 120.174 4.24687C121.181 4.81477 121.957 5.62959 122.504 6.67897C123.062 7.72835 123.329 8.92588 123.329 10.2963C123.353 10.7901 123.317 11.2469 123.256 11.6543Z" fill="#00E0FF"/>
<path d="M153.726 9.28391C153.714 8.38267 153.398 7.65428 152.791 7.11107C152.185 6.56786 151.432 6.29625 150.558 6.29625C149.721 6.29625 149.017 6.55551 148.459 7.08638C147.889 7.61724 147.537 8.34564 147.416 9.28391H153.726ZM157.111 11.6543H147.367C147.452 12.6666 147.78 13.4444 148.374 14.0246C148.969 14.5925 149.697 14.8765 150.558 14.8765C151.808 14.8765 152.694 14.3086 153.228 13.1851H156.857C156.468 14.5308 155.74 15.6296 154.648 16.4938C153.556 17.358 152.221 17.7901 150.631 17.7901C149.345 17.7901 148.192 17.4938 147.185 16.9012C146.166 16.3086 145.377 15.4567 144.806 14.3703C144.236 13.2839 143.957 12.0246 143.957 10.5926C143.957 9.16045 144.236 7.88885 144.794 6.79008C145.353 5.70366 146.141 4.86416 147.149 4.27156C148.156 3.67897 149.321 3.39502 150.631 3.39502C151.942 3.39502 153.034 3.67897 154.029 4.24687C155.036 4.81477 155.813 5.62959 156.359 6.67897C156.917 7.72835 157.184 8.92588 157.184 10.2963C157.208 10.7901 157.172 11.2469 157.111 11.6543Z" fill="#00E0FF"/>
<path d="M76.329 3.39502C72.822 3.39502 69.9824 6.37033 69.9824 10.037V17.7901H73.4409V10.037C73.4409 8.37033 74.7272 7.0123 76.329 7.0123C77.9187 7.0123 79.2172 8.35798 79.2172 10.037V17.7901H82.6757V10.037C82.6878 6.37033 79.8361 3.39502 76.329 3.39502Z" fill="white"/>
<path d="M95.9638 3.39502C92.4568 3.39502 89.6172 6.37033 89.6172 10.037V17.7901H93.0757V10.037C93.0757 8.37033 94.362 7.0123 95.9638 7.0123C97.5535 7.0123 98.8519 8.35798 98.8519 10.037V17.7901H102.31V10.037C102.31 6.37033 99.4708 3.39502 95.9638 3.39502Z" fill="#00E0FF"/>
<path d="M137.61 3.39502C134.103 3.39502 131.264 6.37033 131.264 10.037V17.7901H134.722V10.037C134.722 8.37033 136.008 7.0123 137.61 7.0123C139.2 7.0123 140.498 8.35798 140.498 10.037V17.7901H143.957V10.037C143.957 6.37033 141.117 3.39502 137.61 3.39502Z" fill="#00E0FF"/>
<path d="M15.5814 0C13.7611 0 12.1229 0.802469 10.9701 2.08642C9.8051 0.802469 8.16687 0 6.34662 0C2.8396 0 0 2.97531 0 6.64198V17.7901H3.45848V6.64198C3.45848 4.97531 4.7448 3.61728 6.34662 3.61728C7.94844 3.61728 9.23476 4.96296 9.23476 6.64198V17.7901H12.6932V6.64198C12.6932 4.97531 13.9796 3.61728 15.5814 3.61728C17.1832 3.61728 18.4695 4.96296 18.4695 6.64198V17.7901H21.928V6.64198C21.928 2.97531 19.0884 0 15.5814 0Z" fill="white"/>
<path d="M52.7878 20.0618C52.4723 20.679 52.0354 21.1482 51.5015 21.4568C50.9676 21.7655 50.3972 21.926 49.7783 21.926C48.8197 21.926 48.0187 21.5679 47.3877 20.8519C46.8416 20.2469 46.5383 19.4074 46.4533 18.3457H43.0312C43.1041 19.5432 43.3832 20.6173 43.8928 21.5679C44.4753 22.6543 45.2884 23.5062 46.3077 24.0988C47.3392 24.6914 48.492 24.9877 49.7662 24.9877C51.0404 24.9877 52.2417 24.6914 53.2854 24.0988C54.329 23.5062 55.1663 22.6543 55.7852 21.5679C56.3191 20.6173 56.6225 19.5432 56.6953 18.3457H53.2247C53.1883 19 53.0427 19.5803 52.7878 20.0618Z" fill="white"/>
<path d="M52.7878 12.8642C52.4723 13.4814 52.0354 13.9506 51.5015 14.2592C50.9676 14.5679 50.3972 14.7284 49.7783 14.7284C48.8197 14.7284 48.0187 14.3703 47.3877 13.6543C46.7567 12.9382 46.4412 11.9259 46.4412 10.5926C46.4412 9.25922 46.7688 8.24687 47.412 7.53082C48.0552 6.81477 48.8682 6.45675 49.8269 6.45675C50.7855 6.45675 51.5986 6.81477 52.266 7.53082C52.9334 8.24687 53.2611 9.25922 53.2611 10.5926C53.2732 11.4814 53.1155 12.2345 52.7878 12.8642ZM56.7317 3.39502H49.8754C48.5891 3.39502 47.4363 3.69132 46.3927 4.28391C45.349 4.8765 44.5239 5.72835 43.9292 6.81477C43.3346 7.90119 43.0312 9.16045 43.0312 10.5926C43.0312 12.0246 43.3225 13.2716 43.905 14.3703C44.4875 15.4567 45.3005 16.3086 46.3198 16.9012C47.3513 17.4938 48.5042 17.7901 49.7783 17.7901C51.0646 17.7901 52.2539 17.4938 53.2975 16.9012C54.3411 16.3086 55.1784 15.4567 55.7973 14.3703C56.4162 13.2839 56.7196 12.0246 56.7196 10.5926C56.7196 9.16045 56.4162 7.91354 55.8216 6.81477C55.7488 6.69132 55.6881 6.5802 55.6153 6.46909H56.7317V3.39502Z" fill="white"/>
<path d="M41.9872 3.39502C38.4802 3.39502 35.6406 6.37033 35.6406 10.037V17.7901H39.0991V10.037C39.0991 8.37033 40.3854 7.0123 41.9872 7.0123H43.5527V3.39502H41.9872Z" fill="white"/>
<path d="M129.7 3.39502C126.193 3.39502 123.354 6.37033 123.354 10.037V17.7901H126.812V10.037C126.812 8.37033 128.098 7.0123 129.7 7.0123H131.266V3.39502H129.7Z" fill="#00E0FF"/>
<path d="M89.6166 3.62963V0H87.8813H84.4107H82.6875V3.62963H84.4107V14.1605H82.6875V17.7901H84.4107H87.8813H89.6166V14.1605H87.8813V3.62963H89.6166Z" fill="#00E0FF"/>
<path d="M109.228 14.1604H107.492V11.1727V7.25916C107.492 7.24682 107.492 7.23447 107.492 7.23447V7.02459H109.228V3.39497H107.492V0.617188H104.034V1.34558V3.40731H102.311V7.03694H104.034V7.24682V11.1604C104.034 11.1727 104.034 11.1851 104.034 11.1851V13.1851V14.2839C104.034 16.2345 105.587 17.8024 107.492 17.8024H109.228H110.089V14.1727H109.228V14.1604Z" fill="#00E0FF"/>
<path d="M164.138 14.1604H162.402V11.1727V7.25916C162.402 7.24682 162.402 7.23447 162.402 7.23447V7.02459H164.138V3.39497H162.402V0.617188H158.944V1.34558V3.40731H157.221V7.03694H158.944V7.24682V11.1604C158.944 11.1727 158.944 11.1851 158.944 11.1851V13.1851V14.2839C158.944 16.2345 160.497 17.8024 162.402 17.8024H164.138H164.999V14.1727H164.138V14.1604Z" fill="#00E0FF"/>
</g>
<defs>
<clipPath id="clip0_3547_1557">
<rect width="165" height="25" fill="white"/>
</clipPath>
</defs>
</svg>
