<svg width="8" height="12" viewBox="0 0 8 12" fill="none" xmlns="http://www.w3.org/2000/svg">
<path d="M5.5225 0.000375C5.509 -0.000125 2.491 -0.000125 2.4775 0.000375C1.1095 0.012375 0 1.12938 0 2.49988V9.49988C0 10.8784 1.1215 11.9999 2.5 11.9999H5.5C6.8785 11.9999 8 10.8784 8 9.49988V2.50038C8 1.12937 6.8905 0.012875 5.5225 0.000375ZM7 9.49988C7 10.3269 6.327 10.9999 5.5 10.9999H2.5C1.673 10.9999 1 10.3269 1 9.49988V2.50038C1 1.77387 1.519 1.16688 2.2055 1.02938L2.5525 1.72388C2.637 1.89338 2.8105 2.00038 3 2.00038H5C5.1895 2.00038 5.3625 1.89338 5.4475 1.72388L5.7945 1.02938C6.481 1.16638 7 1.77387 7 2.50038V9.49988ZM4.5 9.99988H3.5C3.224 9.99988 3 9.77588 3 9.49988C3 9.22388 3.224 8.99988 3.5 8.99988H4.5C4.776 8.99988 5 9.22388 5 9.49988C5 9.77588 4.776 9.99988 4.5 9.99988Z" fill="#fff"/>
</svg>
