<svg width="20" height="20" viewBox="0 0 20 20" fill="none" xmlns="http://www.w3.org/2000/svg">
<g clip-path="url(#clip0_3547_1510)">
<path d="M17.9337 0H1.42985C0.639274 0 0 0.624143 0 1.39581V17.9678C0 18.7394 0.639274 19.3673 1.42985 19.3673H17.9337C18.7243 19.3673 19.3673 18.7394 19.3673 17.9715V1.39581C19.3673 0.624143 18.7243 0 17.9337 0ZM5.7459 16.5039H2.87106V7.25897H5.7459V16.5039ZM4.30848 5.99934C3.3855 5.99934 2.64031 5.25415 2.64031 4.33496C2.64031 3.41576 3.3855 2.67058 4.30848 2.67058C5.22767 2.67058 5.97286 3.41576 5.97286 4.33496C5.97286 5.25037 5.22767 5.99934 4.30848 5.99934ZM16.5039 16.5039H13.6328V12.01C13.6328 10.9395 13.6139 9.55884 12.1386 9.55884C10.6445 9.55884 10.4175 10.7277 10.4175 11.9344V16.5039H7.55024V7.25897H10.304V8.52239H10.3419C10.7239 7.79611 11.662 7.02823 13.0578 7.02823C15.9667 7.02823 16.5039 8.94227 16.5039 11.4313V16.5039Z" fill="white" fill-opacity="0.8"/>
</g>
<defs>
<clipPath id="clip0_3547_1510">
<rect width="19.3673" height="19.3673" fill="white"/>
</clipPath>
</defs>
</svg>
