<svg width="20" height="20" viewBox="0 0 20 20" fill="none" xmlns="http://www.w3.org/2000/svg">
<g clip-path="url(#clip0_3547_1504)">
<path d="M19.3673 9.68367C19.3673 4.33553 15.0318 0 9.68367 0C4.33553 0 0 4.33553 0 9.68367C0 14.517 3.54116 18.5232 8.1706 19.2497V12.4829H5.71185V9.68367H8.1706V7.55024C8.1706 5.12327 9.61634 3.78269 11.8283 3.78269C12.8874 3.78269 13.9959 3.97182 13.9959 3.97182V6.35491H12.7749C11.572 6.35491 11.1967 7.10142 11.1967 7.86798V9.68367H13.8825L13.4531 12.4829H11.1967V19.2497C15.8262 18.5232 19.3673 14.517 19.3673 9.68367Z" fill="white" fill-opacity="0.8"/>
</g>
<defs>
<clipPath id="clip0_3547_1504">
<rect width="19.3673" height="19.3673" fill="white"/>
</clipPath>
</defs>
</svg>
