<svg width="20" height="20" viewBox="0 0 20 20" fill="none" xmlns="http://www.w3.org/2000/svg">
<g clip-path="url(#clip0_3547_1506)">
<path d="M9.68367 1.74382C12.271 1.74382 12.5774 1.75517 13.595 1.80056C14.5406 1.84217 15.0513 2.00104 15.3917 2.13343C15.8419 2.30744 16.1672 2.51927 16.5039 2.85593C16.8443 3.19637 17.0523 3.5179 17.2263 3.96804C17.3587 4.30848 17.5176 4.82292 17.5592 5.76481C17.6046 6.78614 17.616 7.09253 17.616 9.67611C17.616 12.2635 17.6046 12.5699 17.5592 13.5874C17.5176 14.5331 17.3587 15.0437 17.2263 15.3842C17.0523 15.8343 16.8405 16.1596 16.5039 16.4963C16.1634 16.8367 15.8419 17.0448 15.3917 17.2188C15.0513 17.3512 14.5369 17.51 13.595 17.5517C12.5736 17.597 12.2672 17.6084 9.68367 17.6084C7.09632 17.6084 6.78992 17.597 5.77238 17.5517C4.82671 17.51 4.31604 17.3512 3.9756 17.2188C3.52546 17.0448 3.20015 16.8329 2.86349 16.4963C2.52305 16.1558 2.315 15.8343 2.141 15.3842C2.00861 15.0437 1.84973 14.5293 1.80812 13.5874C1.76273 12.5661 1.75138 12.2597 1.75138 9.67611C1.75138 7.08875 1.76273 6.78235 1.80812 5.76481C1.84973 4.81914 2.00861 4.30848 2.141 3.96804C2.315 3.5179 2.52683 3.19259 2.86349 2.85593C3.20393 2.51549 3.52546 2.30744 3.9756 2.13343C4.31604 2.00104 4.83049 1.84217 5.77238 1.80056C6.78992 1.75517 7.09632 1.74382 9.68367 1.74382ZM9.68367 0C7.05471 0 6.72561 0.0113481 5.69294 0.0567403C4.66405 0.102132 3.95669 0.268571 3.34389 0.50688C2.70462 0.756537 2.1637 1.08563 1.62655 1.62655C1.08563 2.1637 0.756537 2.70462 0.50688 3.34011C0.268571 3.95669 0.102133 4.66027 0.0567403 5.68916C0.0113481 6.72561 0 7.05471 0 9.68367C0 12.3126 0.0113481 12.6417 0.0567403 13.6744C0.102133 14.7033 0.268571 15.4107 0.50688 16.0235C0.756537 16.6627 1.08563 17.2037 1.62655 17.7408C2.1637 18.2779 2.70462 18.6108 3.34011 18.8567C3.95669 19.095 4.66027 19.2614 5.68916 19.3068C6.72183 19.3522 7.05092 19.3636 9.67989 19.3636C12.3089 19.3636 12.638 19.3522 13.6706 19.3068C14.6995 19.2614 15.4069 19.095 16.0197 18.8567C16.6552 18.6108 17.1961 18.2779 17.7332 17.7408C18.2704 17.2037 18.6032 16.6627 18.8491 16.0272C19.0874 15.4107 19.2539 14.7071 19.2993 13.6782C19.3447 12.6455 19.356 12.3164 19.356 9.68746C19.356 7.05849 19.3447 6.7294 19.2993 5.69672C19.2539 4.66783 19.0874 3.96047 18.8491 3.34768C18.6108 2.70462 18.2817 2.1637 17.7408 1.62655C17.2037 1.08941 16.6627 0.756537 16.0272 0.510662C15.4107 0.272353 14.7071 0.105915 13.6782 0.060523C12.6417 0.0113481 12.3126 0 9.68367 0Z" fill="white" fill-opacity="0.8"/>
<path d="M9.68322 4.70947C6.93699 4.70947 4.70898 6.93747 4.70898 9.6837C4.70898 12.4299 6.93699 14.6579 9.68322 14.6579C12.4294 14.6579 14.6574 12.4299 14.6574 9.6837C14.6574 6.93747 12.4294 4.70947 9.68322 4.70947ZM9.68322 12.9103C7.90157 12.9103 6.45658 11.4653 6.45658 9.6837C6.45658 7.90206 7.90157 6.45707 9.68322 6.45707C11.4649 6.45707 12.9098 7.90206 12.9098 9.6837C12.9098 11.4653 11.4649 12.9103 9.68322 12.9103Z" fill="white" fill-opacity="0.8"/>
<path d="M16.0159 4.51285C16.0159 5.15591 15.4939 5.67413 14.8546 5.67413C14.2116 5.67413 13.6934 5.15212 13.6934 4.51285C13.6934 3.86979 14.2154 3.35156 14.8546 3.35156C15.4939 3.35156 16.0159 3.87357 16.0159 4.51285Z" fill="white" fill-opacity="0.8"/>
</g>
<defs>
<clipPath id="clip0_3547_1506">
<rect width="19.3673" height="19.3673" fill="white"/>
</clipPath>
</defs>
</svg>
